<?xml version="1.0" encoding="UTF-8" standalone="no"?>
<!-- Created with Inkscape (http://www.inkscape.org/) -->

<svg
   width="1280"
   height="640"
   viewBox="0 0 338.66666 169.33333"
   version="1.1"
   id="svg5"
   inkscape:version="1.1.1 (3bf5ae0d25, 2021-09-20)"
   sodipodi:docname="logo.svg"
   xmlns:inkscape="http://www.inkscape.org/namespaces/inkscape"
   xmlns:sodipodi="http://sodipodi.sourceforge.net/DTD/sodipodi-0.dtd"
   xmlns:xlink="http://www.w3.org/1999/xlink"
   xmlns="http://www.w3.org/2000/svg"
   xmlns:svg="http://www.w3.org/2000/svg"
   xmlns:rdf="http://www.w3.org/1999/02/22-rdf-syntax-ns#"
   xmlns:cc="http://creativecommons.org/ns#"
   xmlns:dc="http://purl.org/dc/elements/1.1/">
  <title
     id="title7221">Logo</title>
  <sodipodi:namedview
     id="namedview7"
     pagecolor="#ffffff"
     bordercolor="#666666"
     borderopacity="1.0"
     inkscape:pageshadow="2"
     inkscape:pageopacity="0.0"
     inkscape:pagecheckerboard="0"
     inkscape:document-units="mm"
     showgrid="false"
     inkscape:zoom="0.47158033"
     inkscape:cx="539.67476"
     inkscape:cy="210.99268"
     inkscape:window-width="1366"
     inkscape:window-height="697"
     inkscape:window-x="-8"
     inkscape:window-y="-8"
     inkscape:window-maximized="1"
     inkscape:current-layer="layer1"
     showguides="true"
     height="296mm"
     inkscape:snap-global="false"
     inkscape:guide-bbox="true"
     units="px" />
  <defs
     id="defs2">
    <linearGradient
       inkscape:collect="always"
       id="linearGradient1877">
      <stop
         style="stop-color:#ff2938;stop-opacity:1"
         offset="0"
         id="stop1873" />
      <stop
         style="stop-color:#b20000;stop-opacity:1"
         offset="1"
         id="stop1875" />
    </linearGradient>
    <linearGradient
       inkscape:collect="always"
       id="linearGradient8221">
      <stop
         style="stop-color:#ffffac;stop-opacity:1"
         offset="0"
         id="stop8217" />
      <stop
         style="stop-color:#ffb254;stop-opacity:1"
         offset="1"
         id="stop8219" />
    </linearGradient>
    <linearGradient
       inkscape:collect="always"
       id="linearGradient3459">
      <stop
         style="stop-color:#00c800;stop-opacity:1"
         offset="0"
         id="stop3455" />
      <stop
         style="stop-color:#005d00;stop-opacity:1"
         offset="1"
         id="stop3457" />
    </linearGradient>
    <radialGradient
       inkscape:collect="always"
       xlink:href="#linearGradient3459"
       id="radialGradient3461"
       cx="39.572926"
       cy="60.179504"
       fx="39.572926"
       fy="60.179504"
       r="5.6787271"
       gradientTransform="matrix(1.9663046,0,0,5.1683825,-43.397022,-218.01115)"
       gradientUnits="userSpaceOnUse" />
    <radialGradient
       inkscape:collect="always"
       xlink:href="#linearGradient3459"
       id="radialGradient4723"
       cx="54.627869"
       cy="61.328945"
       fx="54.627869"
       fy="61.328945"
       r="8.6061974"
       gradientTransform="matrix(1.9725121,-0.00365668,0.00527864,2.8474488,-44.059869,-78.847684)"
       gradientUnits="userSpaceOnUse" />
    <radialGradient
       inkscape:collect="always"
       xlink:href="#linearGradient3459"
       id="radialGradient5964"
       cx="71.886627"
       cy="59.696541"
       fx="71.886627"
       fy="59.696541"
       r="6.2247043"
       gradientTransform="matrix(1.9663049,0,0,4.0468035,-43.397034,-149.25955)"
       gradientUnits="userSpaceOnUse" />
    <radialGradient
       inkscape:collect="always"
       xlink:href="#linearGradient3459"
       id="radialGradient6164"
       cx="90.189087"
       cy="59.330601"
       fx="90.189087"
       fy="59.330601"
       r="8.8803978"
       gradientTransform="matrix(1.6474375,-0.026169,0.07197995,4.5314108,-18.564804,-172.33928)"
       gradientUnits="userSpaceOnUse" />
    <radialGradient
       inkscape:collect="always"
       xlink:href="#linearGradient3459"
       id="radialGradient6666"
       cx="121.0862"
       cy="60.418453"
       fx="121.0862"
       fy="60.418453"
       r="8.3531313"
       gradientTransform="matrix(1.9663049,0,0,2.2177638,-43.397034,-40.253785)"
       gradientUnits="userSpaceOnUse" />
    <radialGradient
       inkscape:collect="always"
       xlink:href="#linearGradient3459"
       id="radialGradient6776"
       cx="141.34349"
       cy="60.431679"
       fx="141.34349"
       fy="60.431679"
       r="8.8820572"
       gradientTransform="matrix(1.9663049,0,0,1.924615,-43.397034,-22.541627)"
       gradientUnits="userSpaceOnUse" />
    <radialGradient
       inkscape:collect="always"
       xlink:href="#linearGradient3459"
       id="radialGradient6784"
       cx="159.2233"
       cy="60.000809"
       fx="159.2233"
       fy="60.000809"
       r="6.4348102"
       gradientTransform="matrix(1.9663049,0,0,3.7174062,-43.397034,-130.12848)"
       gradientUnits="userSpaceOnUse" />
    <radialGradient
       inkscape:collect="always"
       xlink:href="#linearGradient3459"
       id="radialGradient6814"
       cx="175.99583"
       cy="60.431675"
       fx="175.99583"
       fy="60.431675"
       r="9.0885954"
       gradientTransform="matrix(2.4997528,0.05647896,-0.04450741,1.9698932,-134.59197,-35.217934)"
       gradientUnits="userSpaceOnUse" />
    <radialGradient
       inkscape:collect="always"
       xlink:href="#linearGradient3459"
       id="radialGradient6905"
       cx="105.27098"
       cy="65.386055"
       fx="105.27098"
       fy="65.386055"
       r="4.3828063"
       gradientTransform="matrix(1.9663049,0,0,9.0739802,-43.397034,-510.61419)"
       gradientUnits="userSpaceOnUse" />
    <linearGradient
       inkscape:collect="always"
       xlink:href="#linearGradient1877"
       id="linearGradient6997"
       x1="109.94183"
       y1="39.936325"
       x2="117.39797"
       y2="39.31916"
       gradientUnits="userSpaceOnUse"
       gradientTransform="matrix(1.1702181,0,0,1.1702181,-28.513639,-24.555791)" />
    <linearGradient
       inkscape:collect="always"
       xlink:href="#linearGradient1877"
       id="linearGradient7027"
       x1="43.339859"
       y1="-104.64225"
       x2="49.80056"
       y2="-104.56952"
       gradientUnits="userSpaceOnUse"
       gradientTransform="matrix(1.1702181,0,0,1.1702181,-24.555791,28.513639)" />
    <linearGradient
       inkscape:collect="always"
       xlink:href="#linearGradient1877"
       id="linearGradient7793"
       x1="102.50835"
       y1="40.021534"
       x2="90.94545"
       y2="39.948803"
       gradientUnits="userSpaceOnUse"
       gradientTransform="matrix(1.1702181,0,0,1.1702181,-28.513639,-24.555791)" />
    <linearGradient
       inkscape:collect="always"
       xlink:href="#linearGradient1877"
       id="linearGradient8087"
       x1="36.885635"
       y1="-104.10872"
       x2="26.777399"
       y2="-104.32692"
       gradientUnits="userSpaceOnUse"
       gradientTransform="matrix(1.1702181,0,0,1.1702181,-24.555791,28.513639)" />
    <radialGradient
       inkscape:collect="always"
       xlink:href="#linearGradient8221"
       id="radialGradient8227"
       cx="104.10059"
       cy="39.973198"
       fx="104.10059"
       fy="39.973198"
       r="3.3278031"
       gradientUnits="userSpaceOnUse"
       gradientTransform="matrix(1.1702181,0,0,1.1702181,-28.513639,-24.555791)" />
  </defs>
  <g
     inkscape:label="Layer 1"
     inkscape:groupmode="layer"
     id="layer1">
    <path
       d="m 28.959627,67.396462 c 2.056909,-2.192857 3.617592,-5.080427 10.8697,0 v 38.058098 c 0,5.25135 -1.430471,9.17574 -4.291413,11.77317 -5.407244,3.57869 -9.744946,6.89026 -15.132883,3.89615 -6.021608,-5.10909 3.763974,-6.8654 6.80415,-10.10741 1.166965,-1.26107 1.750446,-3.11504 1.750446,-5.56191 z"
       style="font-weight:bold;font-size:29.406px;line-height:1.45;-inkscape-font-specification:'sans-serif Bold';fill:url(#radialGradient3461);fill-opacity:1;stroke:#000000;stroke-width:0.987085;stroke-miterlimit:4;stroke-dasharray:none;stroke-opacity:1"
       id="path10494"
       sodipodi:nodetypes="ccscccsc" />
    <path
       d="m 59.423022,96.391741 c -1.054032,0.715237 -1.581047,1.769271 -1.581047,3.162092 0,1.279897 0.423495,2.286887 1.270485,3.020947 0.865811,0.71524 2.061008,1.07286 3.58559,1.07286 1.901022,0 3.50089,-0.6776 4.799607,-2.03279 2.914022,-4.281372 -3.980415,-7.852088 -8.074635,-5.223109 z m 20.214821,-4.884307 v 18.040926 c -4.409544,3.35569 -7.931812,1.96198 -10.192109,0 v -4.6867 c -1.355183,1.91985 -2.879765,3.3221 -4.573745,4.20674 -1.693979,0.86581 -3.754987,1.29871 -6.183024,1.29871 -3.275026,0 -5.938339,-0.95051 -7.989936,-2.85153 -2.032776,-1.91986 -3.049163,-4.40437 -3.049163,-7.45355 0,-3.707934 1.270485,-6.427711 3.811454,-8.159334 2.559791,-1.731624 6.568876,-2.597435 12.027254,-2.597435 h 5.95716 v -0.790524 c -3.619188,-6.782397 -14.297036,-2.727324 -19.59934,0.105866 -4.014927,-2.806745 -4.350371,-7.486804 0.570305,-9.84625 2.16453,-0.527015 4.338469,-0.922277 6.52182,-1.185786 2.183352,-0.28233 4.366703,-0.423495 6.550055,-0.423495 5.703064,0 9.81567,1.12932 12.337816,3.387959 2.540969,2.239818 3.811453,5.891285 3.811453,10.954403 z"
       style="font-weight:bold;font-size:29.406px;line-height:1.45;-inkscape-font-specification:'sans-serif Bold';fill:url(#radialGradient4723);fill-opacity:1;stroke:#000000;stroke-width:0.987085;stroke-miterlimit:4;stroke-dasharray:none;stroke-opacity:1"
       id="path10496"
       sodipodi:nodetypes="cscsccsccccscscscccccscs" />
    <path
       d="m 112.52928,86.538428 c -0.88464,-0.414084 -1.76927,-0.715236 -2.6539,-0.903456 -0.86581,-0.207042 -1.74104,-0.310562 -2.62567,-0.310562 -6.00007,0.270064 -8.061536,4.869565 -8.102868,9.655681 v 14.568269 c -3.369138,1.5659 -6.738273,2.17659 -10.107411,0 V 77.927365 c 1.503488,-6.529768 5.396074,-4.697705 10.107411,0 v 0 c 5.946148,-0.93031 7.471038,-1.260224 13.354198,-0.536421 3.18813,3.04916 0.85806,6.098323 0.0282,9.147484 z"
       style="font-weight:bold;font-size:29.406px;line-height:1.45;-inkscape-font-specification:'sans-serif Bold';fill:url(#radialGradient5964);fill-opacity:1;stroke:#000000;stroke-width:0.987085;stroke-miterlimit:4;stroke-dasharray:none;stroke-opacity:1"
       id="path10498"
       sodipodi:nodetypes="ccccccccccc" />
    <path
       d="M 139.06829,82.557577 V 65.617784 c 4.62363,-3.353978 7.37293,-1.620454 10.16388,0 v 43.930576 c -3.52171,1.73867 -6.91102,1.75629 -10.16388,0 v -4.57376 c -1.39283,1.86338 -2.92682,3.22798 -4.60198,4.0938 -1.67515,0.86581 -3.61382,1.29871 -5.81599,1.29871 -3.89616,0 -7.09589,-1.5434 -9.59922,-4.63022 -2.50332,-3.10565 -3.75499,-7.095921 -3.75499,-11.970817 0,-4.874897 1.25167,-8.855748 3.75499,-11.942555 2.50333,-3.105629 5.70306,-4.658444 9.59922,-4.658444 2.18335,0 4.1126,0.442316 5.78776,1.326951 1.69398,0.865813 3.23738,2.220997 4.63021,4.065552 z m -6.66299,20.468933 c 2.16453,0 3.81146,-0.79053 4.94078,-2.37159 1.14814,-1.581044 1.72221,-3.877327 1.72221,-6.888847 0,-3.01152 -0.57407,-5.307802 -1.72221,-6.888849 -1.12932,-1.581049 -2.77625,-2.371572 -4.94078,-2.371572 -2.1457,0 -3.79263,0.790523 -4.94077,2.371572 -1.12932,1.581047 -1.69398,3.877329 -1.69398,6.888849 0,3.01152 0.56466,5.307803 1.69398,6.888847 1.14814,1.58106 2.79507,2.37159 4.94077,2.37159 z"
       style="font-weight:bold;font-size:29.406px;line-height:1.45;-inkscape-font-specification:'sans-serif Bold';fill:url(#radialGradient6164);fill-opacity:1;stroke:#000000;stroke-width:0.987085;stroke-miterlimit:4;stroke-dasharray:none;stroke-opacity:1"
       id="path10500"
       sodipodi:nodetypes="ccccccsscscsccscscscscs" />
    <path
       d="m 155.50551,43.421867 h 7.207 c 13.03773,32.689573 8.79677,48.049896 6.41824,62.219563 -4.7567,28.33687 -15.54459,16.0062 -8.20733,-8.063455 7.542,-34.428112 -4.16479,-34.292945 -5.41791,-54.156108 z"
       style="font-weight:bold;font-size:29.406px;line-height:1.45;-inkscape-font-specification:'sans-serif Bold';fill:url(#radialGradient6905);fill-opacity:1;stroke:#000000;stroke-width:0.987085;stroke-miterlimit:4;stroke-dasharray:none;stroke-opacity:1"
       id="path10502"
       sodipodi:nodetypes="ccscc" />
    <path
       d="m 210.55413,90.293415 0.0714,19.825245 c -2.90118,1.94135 -6.13878,2.53703 -10.17611,-0.0662 l -0.059,-3.63796 V 94.81069 c 0,-2.72919 -0.0659,-4.611388 -0.19762,-5.646598 -0.11306,-1.035211 -0.32003,-1.7975 -0.62113,-2.286872 -0.39527,-0.658769 -0.9317,-1.166964 -1.60929,-1.524582 -0.67758,-0.376439 -1.44928,-0.56466 -2.3151,-0.56466 -2.10806,0 -3.7644,0.818758 -4.96899,2.456271 -1.20462,1.618691 -1.80692,3.867918 -1.80692,6.747683 v 15.556428 c -3.24859,0.60277 -6.59056,0.73855 -10.10741,0 V 77.927365 c 5.02115,-4.038259 7.41522,-1.654797 10.10741,0 l 0.10087,3.117962 c 2.83235,-2.362765 7.00402,-3.852223 10.43009,-3.880253 3.65147,0 6.41829,1.119909 8.3005,3.359727 1.90102,2.239816 2.85153,5.496021 2.85153,9.768614 z"
       style="font-weight:bold;font-size:29.406px;line-height:1.45;-inkscape-font-specification:'sans-serif Bold';fill:url(#radialGradient6666);fill-opacity:1;stroke:#000000;stroke-width:0.987085;stroke-miterlimit:4;stroke-dasharray:none;stroke-opacity:1"
       id="path10504"
       sodipodi:nodetypes="scccscccscscccccccss" />
    <path
       d="m 251.49197,93.65314 v 2.879766 c -8.12859,1.928843 -16.28665,4.083634 -23.63102,0 0.24469,2.371573 1.10109,4.150254 2.5692,5.336044 1.46812,1.18579 3.51972,1.77869 6.15479,1.77869 2.12689,0 4.30082,-0.31057 6.52182,-0.9317 2.23982,-0.63995 4.53611,-1.59987 6.88885,-2.879777 0.73817,2.548237 2.99849,4.994997 0,7.792347 -2.39038,0.90346 -4.78078,1.58105 -7.17117,2.03278 -2.3904,0.47055 -4.7808,0.70582 -7.17118,0.70582 -5.72189,0 -10.17331,-1.44929 -13.35422,-4.34789 -3.16209,-2.91742 -4.74314,-7.001814 -4.74314,-12.253147 0,-5.157226 1.55281,-9.213365 4.65846,-12.168419 3.12443,-2.955053 7.41585,-4.43258 12.87424,-4.43258 4.96901,0 8.94045,1.496348 11.91431,4.489047 2.9927,2.992696 4.48906,6.992368 4.48906,11.999019 z m -10.38974,-3.359725 c 0,-1.919843 -0.56467,-3.463247 -1.69399,-4.630211 -1.11049,-1.185786 -2.5692,-1.778678 -4.37611,-1.778678 -1.95748,0 -3.54795,0.555249 -4.77138,1.665747 -1.22342,1.091675 -1.98571,2.672724 -2.28687,4.743142 4.37611,1.588686 8.75224,2.897765 13.12835,0 z"
       style="font-weight:bold;font-size:29.406px;line-height:1.45;-inkscape-font-specification:'sans-serif Bold';fill:url(#radialGradient6776);fill-opacity:1;stroke:#000000;stroke-width:0.987085;stroke-miterlimit:4;stroke-dasharray:none;stroke-opacity:1"
       id="path10506"
       sodipodi:nodetypes="sccssccccscscscsccsccc" />
    <path
       d="m 282.63295,86.538428 c -0.88463,-0.414084 -1.76927,-0.715236 -2.65391,-0.903456 -0.8658,-0.207042 -1.74102,-0.310562 -2.62566,-0.310562 -2.59743,0 -4.60198,0.837579 -6.01363,2.512735 -1.39283,1.656334 -2.08924,4.037317 -2.08924,7.142946 v 14.568269 c -3.66993,1.60425 -7.0074,1.43543 -10.1074,0 V 77.927365 c 6.69073,-2.593168 10.1074,-5.370898 10.1074,1.773041 2.61711,-2.476748 7.16551,-2.508987 10.53092,-2.535332 0.33879,0 0.70582,0.01888 1.10107,0.05647 0.39527,0.01888 0.96933,0.07529 1.72221,0.169398 1.70091,4.740656 0.44431,6.523798 0.0283,9.147484 z"
       style="font-weight:bold;font-size:29.406px;line-height:1.45;-inkscape-font-specification:'sans-serif Bold';fill:url(#radialGradient6784);fill-opacity:1;stroke:#000000;stroke-width:0.987085;stroke-miterlimit:4;stroke-dasharray:none;stroke-opacity:1"
       id="path10508"
       sodipodi:nodetypes="ccscsccccccccc" />
    <path
       d="m 302.84919,87.325665 c -5.40757,0.207225 -7.00163,2.422175 -7.03142,6.440408 -0.0578,4.806296 2.5371,6.322637 7.174,6.386417 5.37122,-0.210757 6.4895,-2.409525 6.51899,-6.386417 0.0496,-4.724608 -2.07136,-6.375435 -6.66157,-6.440408 z m -0.14255,-10.160591 c 5.43954,0 9.68389,1.468116 12.73306,4.404348 3.06799,2.93623 4.60198,7.001782 4.60198,12.196651 0,5.194873 -1.53399,9.260437 -4.60198,12.196687 -3.04917,2.93624 -7.29352,4.40435 -12.73306,4.40435 -5.45839,0 -9.73099,-1.46811 -12.81779,-4.40435 -3.06799,-2.93625 -4.60198,-7.001814 -4.60198,-12.196687 0,-5.194869 1.53399,-9.260421 4.60198,-12.196651 3.0868,-2.936232 7.3594,-4.404348 12.81779,-4.404348 z"
       style="font-weight:bold;font-size:29.406px;line-height:1.45;-inkscape-font-specification:'sans-serif Bold';fill:url(#radialGradient6814);fill-opacity:1;stroke:#000000;stroke-width:0.987085;stroke-miterlimit:4;stroke-dasharray:none;stroke-opacity:1"
       id="path10510"
       sodipodi:nodetypes="cccccscscscscs" />
    <g
       id="g952"
       transform="matrix(1.9663049,0,0,1.9663049,-17.384454,0.95155918)">
      <ellipse
         style="fill:url(#linearGradient8087);fill-opacity:1;stroke:#000000;stroke-width:0.509045;stroke-miterlimit:4;stroke-dasharray:none;stroke-opacity:1"
         id="path1768-6-6"
         cx="15.502776"
         cy="-93.401382"
         rx="8.018712"
         ry="4.8012643"
         transform="rotate(90)" />
      <ellipse
         style="fill:url(#linearGradient6997);fill-opacity:1;stroke:#000000;stroke-width:0.509045;stroke-miterlimit:4;stroke-dasharray:none;stroke-opacity:1"
         id="path1768-6"
         cx="99.930901"
         cy="21.937672"
         rx="8.018712"
         ry="4.8012643" />
      <ellipse
         style="fill:url(#linearGradient7027);fill-opacity:1;stroke:#000000;stroke-width:0.509045;stroke-miterlimit:4;stroke-dasharray:none;stroke-opacity:1"
         id="path1768-6-6-9"
         transform="rotate(90)"
         ry="4.8012643"
         rx="8.018712"
         cy="-93.685272"
         cx="28.656458" />
      <ellipse
         style="fill:url(#linearGradient7793);fill-opacity:1;stroke:#000000;stroke-width:0.509045;stroke-miterlimit:4;stroke-dasharray:none;stroke-opacity:1"
         id="path1768-6-4"
         cx="87.061111"
         cy="21.937672"
         rx="8.018712"
         ry="4.8012643" />
      <circle
         style="fill:url(#radialGradient8227);fill-opacity:1;stroke:#000000;stroke-width:0.509045;stroke-miterlimit:4;stroke-dasharray:none;stroke-opacity:1"
         id="path1768"
         cx="93.306763"
         cy="22.221561"
         r="3.698494" />
    </g>
  </g>
  <metadata
     id="metadata7219">
    <rdf:RDF>
      <cc:Work
         rdf:about="">
        <dc:title>Logo</dc:title>
      </cc:Work>
    </rdf:RDF>
  </metadata>
</svg>
