<?xml version="1.0" encoding="utf-8"?>
<svg viewBox="0 0 500 500" xmlns="http://www.w3.org/2000/svg">
  <path d="M 140.72 127.584 L 138.15 127.584 L 138.57 104.904 L 141.68 104.904 L 145.68 123.304 L 149.71 104.904 L 152.79 104.904 L 153.21 127.584 L 150.66 127.584 L 150.41 111.124 L 146.58 127.584 L 144.78 127.584 L 140.98 111.124 L 140.72 127.584 ZM 159.96 127.584 L 156.85 127.584 L 156.85 104.904 L 159.96 104.904 L 159.96 127.584 ZM 168.974 127.834 C 167.667 127.834 166.581 127.554 165.714 126.994 C 164.847 126.434 164.191 125.661 163.744 124.674 C 163.291 123.681 163.027 122.531 162.954 121.224 L 165.754 120.474 C 165.814 121.274 165.941 122.047 166.134 122.794 C 166.327 123.541 166.651 124.154 167.104 124.634 C 167.551 125.107 168.174 125.344 168.974 125.344 C 169.794 125.344 170.414 125.114 170.834 124.654 C 171.254 124.201 171.464 123.544 171.464 122.684 C 171.464 121.657 171.231 120.831 170.764 120.204 C 170.297 119.577 169.711 118.947 169.004 118.314 L 165.194 114.954 C 164.447 114.301 163.897 113.587 163.544 112.814 C 163.191 112.041 163.014 111.084 163.014 109.944 C 163.014 108.284 163.491 106.997 164.444 106.084 C 165.391 105.164 166.687 104.704 168.334 104.704 C 169.227 104.704 170.014 104.821 170.694 105.054 C 171.381 105.287 171.951 105.647 172.404 106.134 C 172.864 106.621 173.227 107.234 173.494 107.974 C 173.767 108.707 173.951 109.571 174.044 110.564 L 171.354 111.284 C 171.301 110.537 171.191 109.854 171.024 109.234 C 170.851 108.607 170.554 108.101 170.134 107.714 C 169.714 107.334 169.114 107.144 168.334 107.144 C 167.547 107.144 166.934 107.354 166.494 107.774 C 166.061 108.194 165.844 108.814 165.844 109.634 C 165.844 110.327 165.961 110.897 166.194 111.344 C 166.427 111.791 166.804 112.247 167.324 112.714 L 171.164 116.074 C 172.017 116.821 172.771 117.714 173.424 118.754 C 174.077 119.787 174.404 121.014 174.404 122.434 C 174.404 123.554 174.171 124.521 173.704 125.334 C 173.237 126.141 172.601 126.761 171.794 127.194 C 170.981 127.621 170.041 127.834 168.974 127.834 ZM 182.558 127.834 C 180.951 127.834 179.705 127.497 178.818 126.824 C 177.931 126.157 177.315 125.254 176.968 124.114 C 176.621 122.974 176.448 121.704 176.448 120.304 L 176.448 112.294 C 176.448 110.767 176.621 109.434 176.968 108.294 C 177.315 107.154 177.931 106.271 178.818 105.644 C 179.705 105.017 180.951 104.704 182.558 104.704 C 183.978 104.704 185.101 104.967 185.928 105.494 C 186.761 106.014 187.358 106.761 187.718 107.734 C 188.085 108.701 188.268 109.867 188.268 111.234 L 188.268 113.024 L 185.268 113.024 L 185.268 111.424 C 185.268 110.584 185.228 109.844 185.148 109.204 C 185.061 108.557 184.831 108.057 184.458 107.704 C 184.085 107.351 183.461 107.174 182.588 107.174 C 181.688 107.174 181.035 107.364 180.628 107.744 C 180.215 108.131 179.948 108.674 179.828 109.374 C 179.708 110.074 179.648 110.891 179.648 111.824 L 179.648 120.804 C 179.648 121.944 179.741 122.847 179.928 123.514 C 180.115 124.174 180.421 124.644 180.848 124.924 C 181.275 125.204 181.855 125.344 182.588 125.344 C 183.441 125.344 184.055 125.154 184.428 124.774 C 184.801 124.387 185.035 123.857 185.128 123.184 C 185.221 122.517 185.268 121.734 185.268 120.834 L 185.268 119.154 L 188.268 119.154 L 188.268 120.834 C 188.268 122.214 188.101 123.434 187.768 124.494 C 187.428 125.547 186.848 126.367 186.028 126.954 C 185.208 127.541 184.051 127.834 182.558 127.834 Z" transform="matrix(8.413376808166504, 0, 0, 11.339686393737793, -1126.6376953125, -1051.081787109375)" style="fill: rgb(51, 51, 51); white-space: pre;"/>
</svg>