<?xml version="1.0" encoding="UTF-8" standalone="no"?>
<svg
   id="Layer_1"
   data-name="Layer 1"
   viewBox="0 0 332.20761 259.72611"
   version="1.1"
   sodipodi:docname="Pandas的副本.svg"
   width="332.20761"
   height="259.7261"
   inkscape:version="1.2.1 (9c6d41e4, 2022-07-14)"
   xmlns:inkscape="http://www.inkscape.org/namespaces/inkscape"
   xmlns:sodipodi="http://sodipodi.sourceforge.net/DTD/sodipodi-0.dtd"
   xmlns="http://www.w3.org/2000/svg"
   xmlns:svg="http://www.w3.org/2000/svg">
  <sodipodi:namedview
     id="namedview1660"
     pagecolor="#ffffff"
     bordercolor="#666666"
     borderopacity="1.0"
     inkscape:showpageshadow="2"
     inkscape:pageopacity="0.0"
     inkscape:pagecheckerboard="0"
     inkscape:deskcolor="#d1d1d1"
     showgrid="false"
     inkscape:zoom="0.71253889"
     inkscape:cx="374.01467"
     inkscape:cy="110.87114"
     inkscape:window-width="1313"
     inkscape:window-height="458"
     inkscape:window-x="0"
     inkscape:window-y="25"
     inkscape:window-maximized="0"
     inkscape:current-layer="Layer_1" />
  <defs
     id="defs1627">
    <style
       id="style1625">.cls-1{fill:#130754;}.cls-2{fill:#ffca00;}.cls-3{fill:#e70488;}</style>
  </defs>
  <title
     id="title1629">Artboard 63</title>
  <path
     class="cls-1"
     d="m 113.37136,169.45882 c -4.57207,0 -9.22873,-5.00765 -12.1447,-14.82264 v 53.02216 H 92.069161 V 76.764301 h 8.280479 l 0.31608,14.39847 c 2.8403,-11.06396 7.88427,-16.90818 12.69674,-16.90818 9.22873,0 16.02674,20.46655 16.02674,47.602109 0,27.13557 -6.78911,47.6139 -16.01784,47.60212 z m -2.83584,-77.235609 c -5.3645,0 -9.70063,11.063959 -9.70063,29.645279 0,18.58132 4.33613,29.66884 9.70063,29.66884 5.36451,0 9.70063,-11.06396 9.70063,-29.64528 0,-18.58132 -4.33612,-29.668839 -9.70063,-29.668839 z"
     id="path1631"
     style="stroke-width:0.724259" />
  <path
     class="cls-1"
     d="m 163.90456,166.97267 -0.31608,-14.39846 c -2.8403,11.06395 -7.88872,16.90818 -12.70119,16.89639 -9.22873,0 -16.02674,-20.45477 -16.02674,-47.59033 0,-27.135559 6.78465,-47.602119 16.02674,-47.590329 4.81247,0 9.86089,5.89135 12.70119,16.90817 l 0.31608,-14.39846 h 8.29829 V 166.97267 Z M 153.73203,92.234991 c -5.3645,0 -9.70063,11.063959 -9.70508,29.645279 -0.004,18.58132 4.33612,29.65706 9.70063,29.65706 5.3645,0 9.70508,-11.06396 9.70508,-29.64528 0,-18.58132 -4.33612,-29.657059 -9.70063,-29.657059 z"
     id="path1633"
     style="stroke-width:0.724259" />
  <path
     class="cls-1"
     d="m 204.19845,166.98445 v -49.88796 c 0,-17.532659 -2.28381,-23.376879 -6.46412,-23.376879 -4.34057,0 -9.07291,10.427689 -9.07291,22.952699 v 50.31214 h -9.15305 V 76.799651 h 8.36506 l 0.39622,16.70787 c 2.28826,-11.48813 7.41237,-19.2058 12.62106,-19.2058 9.06846,0 12.46524,16.70787 12.46524,39.036089 v 53.65842 z"
     id="path1635"
     style="stroke-width:0.724259" />
  <path
     class="cls-1"
     d="m 246.8919,167.00802 -0.31609,-14.41025 c -2.84029,11.06396 -7.88871,16.90818 -12.69673,16.90818 -9.22873,0 -16.02674,-20.46655 -16.02674,-47.60212 0,-27.135559 6.78465,-47.590329 16.02674,-47.590329 4.57207,0 9.22427,5.01943 12.1447,14.82264 V 41.757897 h 9.15305 V 167.00802 Z M 236.71937,92.270341 c -5.34225,0 -9.70063,11.063959 -9.70063,29.633489 0,18.56954 4.33613,29.6335 9.70063,29.6335 5.36451,0 9.70063,-11.05217 9.70063,-29.6335 0,-18.58132 -4.32277,-29.633489 -9.70063,-29.633489 z"
     id="path1637"
     style="stroke-width:0.724259" />
  <path
     class="cls-1"
     d="m 289.55418,167.0198 -0.31608,-14.39846 c -2.84029,11.06396 -7.88872,16.89639 -12.70119,16.89639 -9.22873,0 -16.02674,-20.45477 -16.02674,-47.60211 0,-27.147349 6.78466,-47.590339 16.02674,-47.590339 4.81247,0 9.8609,5.89136 12.70119,16.91996 l 0.31608,-14.41024 h 8.28048 V 167.00802 Z M 279.38166,92.282121 c -5.34225,0 -9.70063,11.063959 -9.70508,29.645279 -0.004,18.58132 4.34057,29.60993 9.70062,29.60993 5.36006,0 9.70509,-11.06396 9.70509,-29.64528 0,-18.58132 -4.33613,-29.609929 -9.70063,-29.609929 z"
     id="path1639"
     style="stroke-width:0.724259" />
  <path
     class="cls-1"
     d="m 318.10404,169.95369 a 26.78246,70.884735 0 0 1 -13.64499,-10.23916 l 1.50028,-16.69609 c 2.76016,4.38316 6.94047,10.02708 11.98889,10.02708 3.62828,0 6.15249,-2.92211 6.15249,-10.43948 0,-6.4687 -2.60435,-8.76633 -7.25655,-11.68844 -8.36062,-4.80734 -11.35673,-16.49578 -11.35673,-29.23288 0,-14.198159 4.18031,-27.547959 13.40904,-27.547959 5.60045,0 10.49306,6.4687 11.57487,8.14185 l -1.50028,15.8713 a 19.850896,52.539068 0 0 0 -9.85645,-7.51737 c -3.70396,0 -5.52032,3.33451 -5.52032,8.76633 0,6.044529 2.3684,8.766329 5.99222,11.063959 8.99278,5.00765 12.62106,16.07161 12.62106,28.18422 0.0178,19.40611 -5.3467,31.30664 -14.10353,31.30664 z"
     id="path1641"
     style="stroke-width:0.724259" />
  <rect
     class="cls-1"
     x="17.224289"
     y="15.352859"
     width="10.724559"
     height="58.937077"
     id="rect1643"
     style="stroke-width:0.724259" />
  <rect
     class="cls-1"
     x="17.224289"
     y="136.42012"
     width="10.724559"
     height="58.937077"
     id="rect1645"
     style="stroke-width:0.724259" />
  <rect
     class="cls-2"
     x="17.224289"
     y="91.492676"
     width="10.724559"
     height="27.807177"
     id="rect1647"
     style="stroke-width:0.724259" />
  <rect
     class="cls-1"
     x="0"
     y="63.815117"
     width="10.724559"
     height="195.911"
     id="rect1649"
     style="stroke-width:0.724259" />
  <rect
     class="cls-1"
     x="34.096882"
     y="185.04733"
     width="10.724559"
     height="58.937077"
     id="rect1651"
     style="stroke-width:0.724259" />
  <rect
     class="cls-1"
     x="34.096882"
     y="63.885811"
     width="10.724559"
     height="58.937077"
     id="rect1653"
     style="stroke-width:0.724259" />
  <rect
     class="cls-3"
     x="34.096882"
     y="140.02562"
     width="10.724559"
     height="27.807177"
     id="rect1655"
     style="stroke-width:0.724259" />
  <rect
     class="cls-1"
     x="50.965023"
     y="0"
     width="10.724559"
     height="195.911"
     id="rect1657"
     style="stroke-width:0.724259" />
</svg>
